<svg width="25" height="26" viewBox="0 0 25 26" fill="none" xmlns="http://www.w3.org/2000/svg">
<path d="M21.6465 13.5527L14.6152 20.5839C14.4686 20.7305 14.2698 20.8129 14.0625 20.8129C13.8552 20.8129 13.6564 20.7305 13.5098 20.5839C13.3632 20.4373 13.2808 20.2385 13.2808 20.0312C13.2808 19.8239 13.3632 19.6251 13.5098 19.4785L19.208 13.7812H3.90625C3.69905 13.7812 3.50034 13.6989 3.35382 13.5524C3.20731 13.4059 3.125 13.2071 3.125 12.9999C3.125 12.7927 3.20731 12.594 3.35382 12.4475C3.50034 12.301 3.69905 12.2187 3.90625 12.2187H19.208L13.5098 6.52143C13.3632 6.37484 13.2808 6.17601 13.2808 5.9687C13.2808 5.76138 13.3632 5.56256 13.5098 5.41596C13.6564 5.26937 13.8552 5.18701 14.0625 5.18701C14.2698 5.18701 14.4686 5.26937 14.6152 5.41596L21.6465 12.4472C21.7191 12.5198 21.7767 12.6059 21.8161 12.7008C21.8554 12.7956 21.8756 12.8973 21.8756 12.9999C21.8756 13.1026 21.8554 13.2043 21.8161 13.2991C21.7767 13.394 21.7191 13.4801 21.6465 13.5527Z" fill="#343330"/>
</svg>
