<svg width="25" height="25" viewBox="0 0 25 25" fill="none" xmlns="http://www.w3.org/2000/svg">
<path d="M22.041 12.9375C22.041 13.2359 21.9225 13.522 21.7115 13.733C21.5005 13.944 21.2144 14.0625 20.916 14.0625H13.791V21.1875C13.791 21.4859 13.6725 21.772 13.4615 21.983C13.2505 22.194 12.9644 22.3125 12.666 22.3125C12.3676 22.3125 12.0815 22.194 11.8705 21.983C11.6595 21.772 11.541 21.4859 11.541 21.1875V14.0625H4.41602C4.11765 14.0625 3.8315 13.944 3.62052 13.733C3.40954 13.522 3.29102 13.2359 3.29102 12.9375C3.29102 12.6391 3.40954 12.353 3.62052 12.142C3.8315 11.931 4.11765 11.8125 4.41602 11.8125H11.541V4.6875C11.541 4.38913 11.6595 4.10298 11.8705 3.892C12.0815 3.68103 12.3676 3.5625 12.666 3.5625C12.9644 3.5625 13.2505 3.68103 13.4615 3.892C13.6725 4.10298 13.791 4.38913 13.791 4.6875V11.8125H20.916C21.2144 11.8125 21.5005 11.931 21.7115 12.142C21.9225 12.353 22.041 12.6391 22.041 12.9375Z" fill="#ECECEC"/>
</svg>
