<svg viewBox="0 0 24 25" fill="none" xmlns="http://www.w3.org/2000/svg">
<path d="M22 10.5H2M11 19.5L18.8 19.5C19.9201 19.5 20.4802 19.5 20.908 19.282C21.2843 19.0903 21.5903 18.7843 21.782 18.408C22 17.9802 22 17.4201 22 16.3V8.7C22 7.5799 22 7.01984 21.782 6.59202C21.5903 6.2157 21.2843 5.90974 20.908 5.71799C20.4802 5.5 19.9201 5.5 18.8 5.5H17M11 19.5L13 21.5M11 19.5L13 17.5M7 19.5H5.2C4.07989 19.5 3.51984 19.5 3.09202 19.282C2.71569 19.0903 2.40973 18.7843 2.21799 18.408C2 17.9802 2 17.4201 2 16.3V8.7C2 7.5799 2 7.01984 2.21799 6.59202C2.40973 6.21569 2.7157 5.90973 3.09202 5.71799C3.51984 5.5 4.0799 5.5 5.2 5.5H13M13 5.5L11 7.5M13 5.5L11 3.5" stroke="currentcolor" stroke-width="2" stroke-linecap="round" stroke-linejoin="round"/>
</svg>
