<svg width="42" height="42" viewBox="0 0 42 42" fill="none" xmlns="http://www.w3.org/2000/svg">
<rect width="42" height="42" rx="21" fill="#F8F8F8"/>
<path d="M19.3959 19.1945C19.3959 19.6895 19.5334 19.7628 19.845 19.8728L20.3125 20.0378V18.4795H20.0375C19.6892 18.4795 19.3959 18.8003 19.3959 19.1945Z" fill="black"/>
<path d="M21.6875 23.5212H21.9625C22.32 23.5212 22.6042 23.2004 22.6042 22.8062C22.6042 22.3112 22.4667 22.2379 22.155 22.1279L21.6875 21.9629V23.5212Z" fill="black"/>
<path d="M27.9484 15.023L26.0692 16.9022C25.9317 17.0397 25.7575 17.1038 25.5834 17.1038C25.4092 17.1038 25.235 17.0397 25.0975 16.9022C24.8317 16.6363 24.8317 16.1963 25.0975 15.9305L26.9767 14.0513C25.3634 12.6763 23.2825 11.833 21 11.833C15.94 11.833 11.8334 15.9397 11.8334 20.9997C11.8334 26.0597 15.94 30.1663 21 30.1663C26.06 30.1663 30.1667 26.0597 30.1667 20.9997C30.1667 18.7172 29.3234 16.6363 27.9484 15.023ZM22.6042 20.8347C23.1909 21.0455 23.9792 21.4672 23.9792 22.8147C23.9792 23.9605 23.0717 24.9047 21.9625 24.9047H21.6875V25.1338C21.6875 25.5097 21.3759 25.8213 21 25.8213C20.6242 25.8213 20.3125 25.5097 20.3125 25.1338V24.9047H20.2392C19.02 24.9047 18.0209 23.878 18.0209 22.613C18.0209 22.228 18.3325 21.9163 18.7084 21.9163C19.0842 21.9163 19.3959 22.228 19.3959 22.6038C19.3959 23.108 19.7717 23.5205 20.2392 23.5205H20.3125V21.4855L19.3959 21.1647C18.8092 20.9538 18.0209 20.5322 18.0209 19.1847C18.0209 18.0388 18.9284 17.0947 20.0375 17.0947H20.3125V16.8747C20.3125 16.4988 20.6242 16.1872 21 16.1872C21.3759 16.1872 21.6875 16.4988 21.6875 16.8747V17.1038H21.7609C22.98 17.1038 23.9792 18.1305 23.9792 19.3955C23.9792 19.7713 23.6675 20.083 23.2917 20.083C22.9159 20.083 22.6042 19.7713 22.6042 19.3955C22.6042 18.8913 22.2284 18.4788 21.7609 18.4788H21.6875V20.5138L22.6042 20.8347Z" fill="black"/>
<path d="M30.7992 11.5672C30.7258 11.4022 30.5975 11.2647 30.4233 11.1913C30.3408 11.1638 30.2583 11.1455 30.1667 11.1455H26.5C26.1242 11.1455 25.8125 11.4572 25.8125 11.833C25.8125 12.2088 26.1242 12.5205 26.5 12.5205H28.5075L26.9767 14.0513C27.325 14.3538 27.6458 14.6747 27.9483 15.023L29.4792 13.4922V15.4997C29.4792 15.8755 29.7908 16.1872 30.1667 16.1872C30.5425 16.1872 30.8542 15.8755 30.8542 15.4997V11.833C30.8542 11.7413 30.8358 11.6588 30.7992 11.5672Z" fill="url(#paint0_linear_3799_9477)"/>
<defs>
<linearGradient id="paint0_linear_3799_9477" x1="37.5" y1="4.5" x2="28.3333" y2="16.1872" gradientUnits="userSpaceOnUse">
<stop offset="0.707245"/>
<stop offset="1" stop-color="#BBBBBB" stop-opacity="0"/>
</linearGradient>
</defs>
</svg>
