<svg width="42" height="42" viewBox="0 0 42 42" fill="none" xmlns="http://www.w3.org/2000/svg">
<rect width="42" height="42" rx="21" fill="#F7F9FA"/>
<path d="M28.3058 18.0212H25.6108C24.4467 18.0212 23.75 17.3245 23.75 16.1603V13.4653C23.75 12.3012 24.4467 11.6045 25.6108 11.6045H28.3058C29.47 11.6045 30.1667 12.3012 30.1667 13.4653V16.1603C30.1667 17.3245 29.47 18.0212 28.3058 18.0212ZM28.5075 14.987C28.3975 14.877 28.2508 14.822 28.1042 14.822C27.9575 14.822 27.8108 14.877 27.7008 14.987L27.5358 15.152V13.0987C27.5358 12.7778 27.2792 12.5212 26.9583 12.5212C26.6375 12.5212 26.3808 12.7778 26.3808 13.0987V15.152L26.2158 14.987C25.9958 14.767 25.6292 14.767 25.4092 14.987C25.1892 15.207 25.1892 15.5737 25.4092 15.7937L26.555 16.9395C26.6008 16.9853 26.665 17.022 26.7292 17.0495C26.7475 17.0587 26.7658 17.0587 26.7842 17.0678C26.83 17.0862 26.8758 17.0953 26.9308 17.0953C26.9492 17.0953 26.9675 17.0953 26.9858 17.0953C27.05 17.0953 27.105 17.0862 27.1692 17.0587C27.1783 17.0587 27.1783 17.0587 27.1875 17.0587C27.2517 17.0312 27.3067 16.9945 27.3525 16.9487C27.3617 16.9395 27.3617 16.9395 27.3708 16.9395L28.5167 15.7937C28.7367 15.5737 28.7367 15.207 28.5075 14.987Z" fill="url(#paint0_linear_3799_9495)"/>
<path d="M11.8334 20.5047V25.088C11.8334 27.1872 13.5292 28.883 15.6284 28.883H26.3625C28.4617 28.883 30.1667 27.178 30.1667 25.0788V20.5047C30.1667 19.8905 29.6717 19.3955 29.0575 19.3955H12.9425C12.3284 19.3955 11.8334 19.8905 11.8334 20.5047ZM17.3334 25.8122H15.5C15.1242 25.8122 14.8125 25.5005 14.8125 25.1247C14.8125 24.7488 15.1242 24.4372 15.5 24.4372H17.3334C17.7092 24.4372 18.0209 24.7488 18.0209 25.1247C18.0209 25.5005 17.7092 25.8122 17.3334 25.8122ZM23.2917 25.8122H19.625C19.2492 25.8122 18.9375 25.5005 18.9375 25.1247C18.9375 24.7488 19.2492 24.4372 19.625 24.4372H23.2917C23.6675 24.4372 23.9792 24.7488 23.9792 25.1247C23.9792 25.5005 23.6675 25.8122 23.2917 25.8122Z" fill="black"/>
<path d="M22.375 14.2254V16.9112C22.375 17.5254 21.88 18.0204 21.2659 18.0204H12.9425C12.3192 18.0204 11.8334 17.507 11.8334 16.8929C11.8425 15.857 12.255 14.9129 12.9425 14.2254C13.63 13.5379 14.5834 13.1162 15.6284 13.1162H21.2659C21.88 13.1162 22.375 13.6112 22.375 14.2254Z" fill="black"/>
<defs>
<linearGradient id="paint0_linear_3799_9495" x1="22.5469" y1="19.2243" x2="38.1875" y2="7.19303" gradientUnits="userSpaceOnUse">
<stop offset="0.253839"/>
<stop offset="0.633116" stop-color="#AFAFAF" stop-opacity="0"/>
</linearGradient>
</defs>
</svg>
