<svg width="19" height="16" viewBox="0 0 19 16" fill="none" xmlns="http://www.w3.org/2000/svg">
<path d="M17.3386 3.83333H18.1719V12.1667H17.3386V14.6667C17.3386 15.1269 16.9655 15.5 16.5052 15.5H1.50521C1.04497 15.5 0.671875 15.1269 0.671875 14.6667V1.33333C0.671875 0.8731 1.04497 0.5 1.50521 0.5H16.5052C16.9655 0.5 17.3386 0.8731 17.3386 1.33333V3.83333ZM15.6719 12.1667H10.6719C8.37072 12.1667 6.50521 10.3012 6.50521 8C6.50521 5.69882 8.37072 3.83333 10.6719 3.83333H15.6719V2.16667H2.33854V13.8333H15.6719V12.1667ZM16.5052 10.5V5.5H10.6719C9.29114 5.5 8.17189 6.61925 8.17189 8C8.17189 9.38075 9.29114 10.5 10.6719 10.5H16.5052ZM10.6719 7.16667H13.1719V8.83333H10.6719V7.16667Z" fill="#4F4F4F"/>
</svg>
