<svg viewBox="0 0 20 20" fill="none" xmlns="http://www.w3.org/2000/svg">
<path d="M17.5026 11.0345V16.666H18.3359V18.3327H1.66927V16.666H2.5026V11.0345C1.49761 10.3618 0.835938 9.21618 0.835938 7.91602C0.835938 7.22673 1.02296 6.56286 1.36362 5.99723L3.62369 2.08268C3.77255 1.82485 4.04765 1.66602 4.34537 1.66602H15.6599C15.9575 1.66602 16.2327 1.82485 16.3815 2.08268L18.6339 5.98412C18.9823 6.56286 19.1693 7.22673 19.1693 7.91602C19.1693 9.21618 18.5076 10.3618 17.5026 11.0345ZM15.8359 11.6431C15.6991 11.6583 15.5601 11.666 15.4193 11.666C14.37 11.666 13.4017 11.231 12.7109 10.5103C12.0202 11.231 11.0519 11.666 10.0026 11.666C8.95335 11.666 7.98502 11.231 7.29427 10.5103C6.60352 11.231 5.6352 11.666 4.58594 11.666C4.4451 11.666 4.30608 11.6583 4.16927 11.6431V16.666H15.8359V11.6431ZM4.82648 3.33268L2.79925 6.84369C2.60601 7.16471 2.5026 7.53177 2.5026 7.91602C2.5026 9.0666 3.43535 9.99935 4.58594 9.99935C5.44507 9.99935 6.2065 9.4746 6.52076 8.6906C6.80044 7.99287 7.7881 7.99287 8.06778 8.6906C8.38202 9.4746 9.14344 9.99935 10.0026 9.99935C10.8618 9.99935 11.6232 9.4746 11.9374 8.6906C12.2171 7.99287 13.2048 7.99287 13.4844 8.6906C13.7987 9.4746 14.5601 9.99935 15.4193 9.99935C16.5699 9.99935 17.5026 9.0666 17.5026 7.91602C17.5026 7.53177 17.3992 7.16471 17.1982 6.83057L15.1787 3.33268H4.82648Z" fill="currentcolor"/>
</svg>
