<svg width="20" height="20" viewBox="0 0 20 20" fill="none" xmlns="http://www.w3.org/2000/svg">
<path d="M8.3135 14.9993H11.6917C11.8017 13.998 12.3127 13.1714 13.1423 12.2682C13.2357 12.1665 13.8349 11.5463 13.906 11.4578C14.6124 10.5769 15.0026 9.48685 15.0026 8.33268C15.0026 5.57126 12.764 3.33268 10.0026 3.33268C7.24118 3.33268 5.0026 5.57126 5.0026 8.33268C5.0026 9.48627 5.39239 10.5758 6.09812 11.4563C6.1693 11.5452 6.76995 12.167 6.86222 12.2675C7.69232 13.1713 8.20346 13.998 8.3135 14.9993ZM11.6693 16.666H8.33594V17.4993H11.6693V16.666ZM4.79756 12.4987C3.88298 11.3574 3.33594 9.90893 3.33594 8.33268C3.33594 4.65078 6.3207 1.66602 10.0026 1.66602C13.6845 1.66602 16.6693 4.65078 16.6693 8.33268C16.6693 9.90977 16.1216 11.3589 15.2062 12.5005C14.6893 13.145 13.3359 14.166 13.3359 15.416V17.4993C13.3359 18.4198 12.5898 19.166 11.6693 19.166H8.33594C7.41546 19.166 6.66927 18.4198 6.66927 17.4993V15.416C6.66927 14.166 5.31475 13.144 4.79756 12.4987ZM10.8359 8.33668H12.9193L9.16927 13.3367V10.0033H7.08594L10.8359 4.99935V8.33668Z" fill="currentcolor"/>
</svg>
