<svg width="37" height="25" viewBox="0 0 37 25" fill="none" xmlns="http://www.w3.org/2000/svg">
<rect x="1.14301" y="0.465524" width="35.0197" height="24.1247" rx="4.28018" fill="white"/>
<rect x="1.14301" y="0.465524" width="35.0197" height="24.1247" rx="4.28018" stroke="#F2F4F7" stroke-width="0.778215"/>
<path fill-rule="evenodd" clip-rule="evenodd" d="M18.5768 17.5384C17.3481 18.5743 15.7541 19.1997 14.0123 19.1997C10.1266 19.1997 6.97656 16.0872 6.97656 12.2476C6.97656 8.40813 10.1266 5.29559 14.0123 5.29559C15.7541 5.29559 17.3481 5.92098 18.5768 6.95691C19.8054 5.92098 21.3994 5.29559 23.1412 5.29559C27.0269 5.29559 30.177 8.40813 30.177 12.2476C30.177 16.0872 27.0269 19.1997 23.1412 19.1997C21.3994 19.1997 19.8054 18.5743 18.5768 17.5384Z" fill="#ED0006"/>
<path fill-rule="evenodd" clip-rule="evenodd" d="M18.5781 17.5384C20.0905 16.2633 21.0495 14.3661 21.0495 12.2476C21.0495 10.1292 20.0905 8.23204 18.5781 6.95691C19.8068 5.92098 21.4008 5.29559 23.1425 5.29559C27.0283 5.29559 30.1783 8.40813 30.1783 12.2476C30.1783 16.0872 27.0283 19.1997 23.1425 19.1997C21.4008 19.1997 19.8068 18.5743 18.5781 17.5384Z" fill="#F9A000"/>
<path fill-rule="evenodd" clip-rule="evenodd" d="M18.5768 17.5384C20.0892 16.2633 21.0482 14.3661 21.0482 12.2477C21.0482 10.1292 20.0892 8.23204 18.5768 6.95691C17.0644 8.23204 16.1055 10.1292 16.1055 12.2477C16.1055 14.3661 17.0644 16.2633 18.5768 17.5384Z" fill="#FF5E00"/>
</svg>
