<svg width="37" height="26" viewBox="0 0 37 26" fill="none" xmlns="http://www.w3.org/2000/svg">
<rect x="1.13911" y="1.04292" width="35.0197" height="24.1247" rx="2.72375" fill="white"/>
<rect x="1.13911" y="1.04292" width="35.0197" height="24.1247" rx="2.72375" stroke="#F2F4F7" stroke-width="0.778215"/>
<path fill-rule="evenodd" clip-rule="evenodd" d="M15.9127 19.7961L16.1418 18.2924L15.6316 18.2801H13.1953L14.8884 7.18421C14.8937 7.15061 14.9108 7.11942 14.9357 7.09723C14.9607 7.07504 14.9926 7.06287 15.0259 7.06287H19.1339C20.4977 7.06287 21.4389 7.35614 21.9302 7.93507C22.1606 8.20665 22.3073 8.49054 22.3783 8.80283C22.4528 9.13059 22.454 9.52212 22.3814 9.99974L22.3761 10.0345V10.3406L22.6065 10.4755C22.8004 10.5818 22.9546 10.7036 23.0729 10.8429C23.2699 11.0752 23.3973 11.3704 23.4512 11.7202C23.5069 12.08 23.4885 12.5083 23.3973 12.9932C23.2922 13.5508 23.1223 14.0365 22.8928 14.4339C22.6818 14.8001 22.4129 15.1039 22.0936 15.3392C21.7887 15.5629 21.4266 15.7326 21.0171 15.8413C20.6203 15.948 20.1679 16.0019 19.6717 16.0019H19.352C19.1234 16.0019 18.9014 16.087 18.7271 16.2395C18.5523 16.3952 18.4367 16.608 18.4013 16.8407L18.3771 16.9761L17.9724 19.6264L17.9541 19.7237C17.9492 19.7545 17.9409 19.7698 17.9286 19.7802C17.9177 19.7897 17.902 19.7961 17.8867 19.7961H15.9127" fill="#28356A"/>
<path fill-rule="evenodd" clip-rule="evenodd" d="M22.825 10.0699C22.8129 10.151 22.7988 10.2338 22.7831 10.3188C22.2414 13.1937 20.3879 14.1869 18.0208 14.1869H16.8156C16.5261 14.1869 16.2821 14.4041 16.237 14.6992L15.4452 19.8907C15.4159 20.0846 15.5604 20.2592 15.7495 20.2592H17.8872C18.1403 20.2592 18.3553 20.0691 18.3952 19.8111L18.4162 19.6989L18.8187 17.059L18.8446 16.9142C18.8839 16.6553 19.0995 16.4651 19.3525 16.4651H19.6722C21.7433 16.4651 23.3647 15.596 23.8385 13.081C24.0364 12.0304 23.934 11.1531 23.4102 10.5362C23.2517 10.3502 23.055 10.1957 22.825 10.0699" fill="#298FC2"/>
<path fill-rule="evenodd" clip-rule="evenodd" d="M22.2557 9.83634C22.1729 9.81136 22.0875 9.78879 22 9.76838C21.9119 9.74847 21.8217 9.73085 21.7289 9.71538C21.4039 9.66111 21.0478 9.63538 20.6664 9.63538H17.4466C17.3673 9.63538 17.2919 9.65389 17.2246 9.68736C17.076 9.76115 16.9657 9.90646 16.939 10.0843L16.254 14.5685L16.2344 14.6992C16.2794 14.404 16.5234 14.1868 16.8129 14.1868H18.0181C20.3852 14.1868 22.2387 13.1931 22.7804 10.3188C22.7966 10.2337 22.8102 10.1509 22.8224 10.0699C22.6853 9.9947 22.5369 9.93042 22.3771 9.87565C22.3376 9.86208 22.2968 9.84902 22.2557 9.83634" fill="#22284F"/>
<path fill-rule="evenodd" clip-rule="evenodd" d="M16.9409 10.0844C16.9676 9.90647 17.0779 9.76117 17.2265 9.68788C17.2943 9.65428 17.3692 9.63577 17.4485 9.63577H20.6683C21.0497 9.63577 21.4058 9.66164 21.7308 9.7159C21.8236 9.73125 21.9138 9.749 22.0019 9.7689C22.0894 9.78919 22.1748 9.81189 22.2576 9.83674C22.2987 9.84942 22.3395 9.8626 22.3793 9.87566C22.5392 9.93044 22.6877 9.99523 22.8247 10.0699C22.9859 9.00752 22.8234 8.28417 22.2677 7.62917C21.6549 6.90798 20.5492 6.59937 19.1342 6.59937H15.0261C14.7371 6.59937 14.4905 6.81656 14.4459 7.11224L12.7348 18.3223C12.7011 18.544 12.8666 18.7441 13.083 18.7441H15.6191L16.9409 10.0844" fill="#28356A"/>
</svg>
