<svg viewBox="0 0 22 22" fill="none" xmlns="http://www.w3.org/2000/svg">
<path d="M2.67335 19.0403C2.1839 19.0403 1.78711 18.6428 1.78711 18.1526V3.84373C1.78711 3.35348 2.19396 2.95605 2.67335 2.95605H18.7723C19.2618 2.95605 19.6585 3.35365 19.6585 3.84373V18.1526C19.6585 18.6429 19.2517 19.0403 18.7723 19.0403H2.67335ZM17.8714 13.6789V4.74319H3.57425V17.2532L12.5099 8.31747L17.8714 13.6789ZM17.8714 16.2063L12.5099 10.8448L6.10165 17.2532H17.8714V16.2063ZM7.14853 10.1046C6.16152 10.1046 5.36139 9.30451 5.36139 8.31747C5.36139 7.33046 6.16152 6.53033 7.14853 6.53033C8.13554 6.53033 8.93567 7.33046 8.93567 8.31747C8.93567 9.30451 8.13554 10.1046 7.14853 10.1046Z" fill="currentcolor"/>
</svg>
