<svg width="34" height="35" viewBox="0 0 34 35" fill="none" xmlns="http://www.w3.org/2000/svg">
<path d="M17.5 32.336C17.5 33.8073 16.3005 35.0207 14.8463 34.7976C12.5087 34.439 10.2586 33.6087 8.23654 32.3472C5.4578 30.6135 3.22136 28.1347 1.78158 25.1929C0.341803 22.2511 -0.243529 18.9643 0.0921605 15.7064C0.42785 12.4484 1.67109 9.34999 3.68047 6.76359C5.68985 4.17718 8.38473 2.20657 11.4586 1.07589C14.5325 -0.0547975 17.862 -0.300172 21.0684 0.367671C24.2748 1.03551 27.2294 2.58977 29.5963 4.85366C31.3186 6.50105 32.6793 8.47609 33.6047 10.6524C34.1804 12.0064 33.3011 13.4686 31.8755 13.8323C30.45 14.1961 29.0242 13.3146 28.3596 12.0019C27.7398 10.7777 26.9144 9.66122 25.9135 8.70387C24.2673 7.12922 22.2122 6.04817 19.982 5.58365C17.7518 5.11913 15.4359 5.2898 13.2979 6.07625C11.1599 6.86269 9.28548 8.23334 7.88786 10.0323C6.49024 11.8313 5.62551 13.9864 5.39202 16.2524C5.15853 18.5185 5.56566 20.8046 6.56709 22.8508C7.56853 24.897 9.12408 26.621 11.0568 27.8269C12.2319 28.5601 13.5177 29.0838 14.8572 29.3817C16.2934 29.7012 17.5 30.8648 17.5 32.336Z" fill="#EB3173"/>
</svg>
