<svg width="20" height="20" viewBox="0 0 20 20" fill="none" xmlns="http://www.w3.org/2000/svg">
<path d="M12.0949 4.16625L14.2671 1.99408C14.5925 1.66864 15.1202 1.66864 15.4456 1.99408L18.9812 5.52961C19.3066 5.85505 19.3066 6.38269 18.9812 6.70812L15.8327 9.8566V17.4996C15.8327 17.9598 15.4596 18.3329 14.9993 18.3329H4.99932C4.53909 18.3329 4.16599 17.9598 4.16599 17.4996V9.8566L1.01752 6.70812C0.692078 6.38269 0.692078 5.85505 1.01752 5.52961L4.55305 1.99408C4.87848 1.66864 5.40613 1.66864 5.73156 1.99408L7.90373 4.16625H12.0949ZM12.7852 5.83291H7.21337L5.1423 3.76185L2.78528 6.11887L5.83266 9.16627V16.6663H14.166V9.16627L17.2134 6.11887L14.8563 3.76185L12.7852 5.83291Z" fill="currentcolor"/>
</svg>
