<svg viewBox="0 0 20 21" fill="none" xmlns="http://www.w3.org/2000/svg">
<path d="M10.8316 17.1667H15.8316V13.8333H12.4982V12.1667H15.8316V5.5H14.1649V9.66667L10.8316 8.33333V17.1667ZM9.16492 17.1667V8.33333L5.83162 9.66667V5.5H4.16496V17.1667H9.16492ZM5.83162 3.83333V3H14.1649V3.83333H16.6649C17.1252 3.83333 17.4982 4.20643 17.4982 4.66667V18C17.4982 18.4603 17.1252 18.8333 16.6649 18.8333H3.33162C2.87138 18.8333 2.49829 18.4603 2.49829 18V4.66667C2.49829 4.20643 2.87138 3.83333 3.33162 3.83333H5.83162ZM9.99825 7.16667L12.9149 4.66667H7.08162L9.99825 7.16667Z" fill="currentcolor"/>
</svg>
