<svg width="37" height="25" viewBox="0 0 37 25" fill="none" xmlns="http://www.w3.org/2000/svg">
<rect x="1.0063" y="0.465524" width="35.0197" height="24.1247" rx="2.72375" fill="white"/>
<rect x="1.0063" y="0.465524" width="35.0197" height="24.1247" rx="2.72375" stroke="#F2F4F7" stroke-width="0.778215"/>
<path fill-rule="evenodd" clip-rule="evenodd" d="M19.5754 8.52468L17.7833 8.9206V7.4249L19.5754 7.03632V8.52468ZM23.301 9.3532C22.6013 9.3532 22.1515 9.69047 21.9016 9.92509L21.8087 9.47051H20.238V18.0195L22.0229 17.6309L22.0301 15.556C22.2871 15.7466 22.6655 16.0179 23.2938 16.0179C24.5719 16.0179 25.7357 14.9621 25.7357 12.6379C25.7285 10.5116 24.5504 9.3532 23.301 9.3532ZM22.872 14.4049C22.4508 14.4049 22.2009 14.2509 22.0295 14.0603L22.0224 11.3401C22.208 11.1275 22.4651 10.9809 22.872 10.9809C23.5218 10.9809 23.9716 11.7287 23.9716 12.6892C23.9716 13.6717 23.5289 14.4049 22.872 14.4049ZM31.3632 12.7112C31.3632 10.8342 30.4779 9.3532 28.7857 9.3532C27.0865 9.3532 26.0583 10.8342 26.0583 12.6965C26.0583 14.9034 27.2721 16.0179 29.0142 16.0179C29.8638 16.0179 30.5064 15.8199 30.9919 15.5413V14.0749C30.5064 14.3242 29.9495 14.4782 29.2427 14.4782C28.5501 14.4782 27.9361 14.2289 27.8576 13.3637H31.3489C31.3489 13.3235 31.3515 13.2325 31.3544 13.1274L31.3544 13.1261L31.3544 13.1258C31.3585 12.982 31.3632 12.8126 31.3632 12.7112ZM27.8367 12.0147C27.8367 11.1862 28.3293 10.8416 28.7791 10.8416C29.2146 10.8416 29.6787 11.1862 29.6787 12.0147H27.8367ZM17.7833 9.47783H19.5754V15.8932H17.7833V9.47783ZM15.7475 9.47781L15.8618 10.0204C16.283 9.22853 17.1184 9.38983 17.3469 9.47781V11.1641C17.1255 11.0835 16.4115 10.9808 15.9903 11.5454V15.8932H14.2053V9.47781H15.7475ZM12.2915 7.88682L10.5494 8.26808L10.5422 14.1409C10.5422 15.226 11.3348 16.0252 12.3915 16.0252C12.9769 16.0252 13.4053 15.9152 13.6409 15.7832V14.2949C13.4125 14.3902 12.2844 14.7274 12.2844 13.6423V11.0395H13.6409V9.47784H12.2844L12.2915 7.88682ZM8.07343 10.9442C7.69501 10.9442 7.46654 11.0542 7.46654 11.3401C7.46654 11.6523 7.85975 11.7897 8.34757 11.9601C9.14283 12.2378 10.1895 12.6034 10.194 13.9576C10.194 15.27 9.17296 16.0252 7.68787 16.0252C7.07385 16.0252 6.4027 15.9006 5.73869 15.6073V13.8623C6.33844 14.1996 7.09527 14.4488 7.68787 14.4488C8.08771 14.4488 8.3733 14.3389 8.3733 14.0016C8.3733 13.6558 7.94705 13.4977 7.43246 13.3069C6.64876 13.0162 5.66016 12.6496 5.66016 11.4281C5.66016 10.1304 6.62404 9.3532 8.07343 9.3532C8.66603 9.3532 9.2515 9.44851 9.84411 9.69046V11.4135C9.30148 11.1128 8.61605 10.9442 8.07343 10.9442Z" fill="#6461FC"/>
</svg>
