<svg viewBox="0 0 19 19" fill="none" xmlns="http://www.w3.org/2000/svg">
<path d="M5.54036 3.95764V1.58264C5.54036 1.14541 5.89481 0.790969 6.33203 0.790969H12.6654C13.1026 0.790969 13.457 1.14541 13.457 1.58264V3.95764H16.6237C17.0609 3.95764 17.4154 4.31208 17.4154 4.7493V15.8326C17.4154 16.2699 17.0609 16.6243 16.6237 16.6243H2.3737C1.93648 16.6243 1.58203 16.2699 1.58203 15.8326V4.7493C1.58203 4.31208 1.93648 3.95764 2.3737 3.95764H5.54036ZM15.832 10.291H3.16536V15.041H15.832V10.291ZM15.832 5.54097H3.16536V8.70764H5.54036V7.1243H7.1237V8.70764H11.8737V7.1243H13.457V8.70764H15.832V5.54097ZM7.1237 2.3743V3.95764H11.8737V2.3743H7.1237Z" fill="currentcolor"/>
</svg>
