<svg viewBox="0 0 26 25" fill="none" xmlns="http://www.w3.org/2000/svg">
<g clip-path="url(#clip0_3799_8310)">
<path d="M12.9966 13.1111L17.4164 17.5298L15.9424 19.0038L14.0383 17.0996V22.9173H11.9549V17.0975L10.0508 19.0038L8.5768 17.5298L12.9966 13.1111ZM12.9966 2.08398C14.7851 2.08407 16.5112 2.74139 17.8468 3.93098C19.1823 5.12057 20.0342 6.75947 20.2403 8.53607C21.5365 8.88952 22.6671 9.68722 23.4348 10.7897C24.2024 11.8923 24.5582 13.2295 24.4399 14.5677C24.3217 15.906 23.7369 17.1601 22.7878 18.1109C21.8387 19.0617 20.5856 19.6487 19.2476 19.7694V17.6715C19.727 17.603 20.1879 17.4398 20.6035 17.1912C21.019 16.9427 21.3809 16.6139 21.668 16.224C21.9551 15.8341 22.1617 15.3909 22.2756 14.9203C22.3896 14.4497 22.4086 13.9611 22.3317 13.483C22.2548 13.005 22.0834 12.547 21.8275 12.1359C21.5717 11.7248 21.2365 11.3688 20.8416 11.0886C20.4467 10.8085 19.9999 10.6098 19.5273 10.5042C19.0548 10.3986 18.5659 10.3882 18.0893 10.4736C18.2524 9.71407 18.2436 8.92771 18.0635 8.17206C17.8834 7.41642 17.5365 6.71064 17.0483 6.10641C16.56 5.50219 15.9428 5.01482 15.2419 4.68002C14.5409 4.34522 13.7739 4.17145 12.9971 4.17145C12.2203 4.17145 11.4533 4.34522 10.7524 4.68002C10.0514 5.01482 9.43419 5.50219 8.94597 6.10641C8.45775 6.71064 8.11087 7.41642 7.93074 8.17206C7.75061 8.92771 7.74179 9.71407 7.90493 10.4736C6.95457 10.2951 5.97224 10.5015 5.17404 11.0473C4.37583 11.5931 3.82715 12.4336 3.64868 13.384C3.47021 14.3343 3.67658 15.3167 4.22239 16.1149C4.7682 16.9131 5.60874 17.4618 6.55909 17.6402L6.74659 17.6715V19.7694C5.40852 19.6489 4.15535 19.062 3.20611 18.1113C2.25687 17.1605 1.67193 15.9064 1.55355 14.5682C1.43516 13.2299 1.79084 11.8926 2.55844 10.79C3.32603 9.68738 4.45671 8.8896 5.75284 8.53607C5.95879 6.75938 6.81056 5.12035 8.14616 3.93072C9.48175 2.74109 11.208 2.08384 12.9966 2.08398Z" fill="currentcolor"/>
</g>
<defs>
<clipPath id="clip0_3799_8310">
<rect width="25" height="25" fill="none" transform="translate(0.5)"/>
</clipPath>
</defs>
</svg>
