<svg width="37" height="25" viewBox="0 0 37 25" fill="none" xmlns="http://www.w3.org/2000/svg">
<rect x="0.869576" y="0.465524" width="35.0197" height="24.1247" rx="4.28018" fill="white"/>
<rect x="0.869576" y="0.465524" width="35.0197" height="24.1247" rx="4.28018" stroke="#F2F4F7" stroke-width="0.778215"/>
<path fill-rule="evenodd" clip-rule="evenodd" d="M11.6311 16.5313H9.4939L7.89124 10.2372C7.81517 9.94767 7.65366 9.69171 7.41607 9.57108C6.82315 9.26791 6.16979 9.02664 5.45703 8.90495V8.66263H8.89994C9.37511 8.66263 9.73149 9.02664 9.79089 9.44939L10.6224 13.9895L12.7586 8.66263H14.8365L11.6311 16.5313ZM16.0237 16.5313H14.0052L15.6673 8.66263H17.6857L16.0237 16.5313ZM20.2986 10.8425C20.358 10.4187 20.7144 10.1763 21.1302 10.1763C21.7835 10.1155 22.4953 10.2372 23.0892 10.5393L23.4456 8.84515C22.8516 8.60283 22.1983 8.48114 21.6054 8.48114C19.6463 8.48114 18.2208 9.57106 18.2208 11.0837C18.2208 12.2345 19.2305 12.8387 19.9433 13.2027C20.7144 13.5657 21.0114 13.808 20.952 14.171C20.952 14.7154 20.358 14.9577 19.7651 14.9577C19.0523 14.9577 18.3396 14.7763 17.6873 14.4731L17.3309 16.1683C18.0437 16.4704 18.8148 16.5921 19.5275 16.5921C21.7241 16.6519 23.0892 15.563 23.0892 13.9287C23.0892 11.8705 20.2986 11.7499 20.2986 10.8425V10.8425ZM30.1511 16.5313L28.5484 8.66263H26.827C26.4706 8.66263 26.1142 8.90495 25.9954 9.26791L23.0277 16.5313H25.1055L25.5202 15.3816H28.0732L28.3108 16.5313H30.1511ZM27.1246 10.7816L27.7175 13.7472H26.0554L27.1246 10.7816Z" fill="#172B85"/>
</svg>
